<svg width="16" height="16" viewBox="0 0 16 16" fill="none" xmlns="http://www.w3.org/2000/svg">
<circle cx="8" cy="8" r="7.75" stroke="#333333" stroke-width="0.5"/>
<path d="M8.59846 4.0375L8.46721 9.65391H7.34065L7.20393 4.0375H8.59846ZM7.16565 11.3766C7.16565 11.176 7.23127 11.0083 7.36252 10.8734C7.49742 10.7349 7.68336 10.6656 7.92034 10.6656C8.15367 10.6656 8.33778 10.7349 8.47268 10.8734C8.60758 11.0083 8.67502 11.176 8.67502 11.3766C8.67502 11.5698 8.60758 11.7357 8.47268 11.8742C8.33778 12.0091 8.15367 12.0766 7.92034 12.0766C7.68336 12.0766 7.49742 12.0091 7.36252 11.8742C7.23127 11.7357 7.16565 11.5698 7.16565 11.3766Z" fill="#333333"/>
</svg>
