<svg viewBox="0 0 24 28" fill="none" xmlns="http://www.w3.org/2000/svg">
<g clip-path="url(#clip0_1004_3710)">
<rect width="13.8564" height="13.8564" transform="matrix(-0.866025 0.5 -0.866025 -0.5 24 6.92822)" fill="#FFEA7C"/>
<rect width="1.10851" height="7.21402" transform="matrix(-0.866025 0.5 -0.866025 -0.5 18.48 10.1152)" fill="#FF6969"/>
<rect width="1.10851" height="7.35323" transform="matrix(0.866025 0.5 -0.866025 0.5 11.6272 6.58911)" fill="#FF6969"/>
</g>
<path d="M11.8472 6.95421C11.0963 5.27519 8.30368 1.31053 5.74738 3.07634C3.19108 4.84215 8.96609 6.74669 11.8472 6.95421Z" stroke="#FF6969" stroke-width="1.10851"/>
<path d="M11.8472 6.95421C12.598 5.27519 15.3907 1.31053 17.947 3.07634C20.5033 4.84215 14.7282 6.74669 11.8472 6.95421Z" stroke="#FF6969" stroke-width="1.10851"/>
<g clip-path="url(#clip1_1004_3710)">
<rect width="13.8564" height="13.8564" transform="matrix(0.866025 0.5 -2.20305e-08 1 0 6.92822)" fill="#FFD361"/>
<rect width="1.10851" height="13.8564" transform="matrix(0.866025 0.5 -2.20305e-08 1 5.52002 10.1152)" fill="#FF6969"/>
<rect width="1.10851" height="13.8564" transform="matrix(2.20305e-08 -1 0.866025 0.5 0 14.4106)" fill="#FF6969"/>
</g>
<g clip-path="url(#clip2_1004_3710)">
<rect width="13.8564" height="13.8564" transform="matrix(0.866025 -0.5 2.20305e-08 1 12 13.8564)" fill="#FFB661"/>
<path fill-rule="evenodd" clip-rule="evenodd" d="M18.48 10.1152L17.52 10.6695L17.52 17.0434L12 20.2304L12 21.3389L17.52 18.1519L17.52 24.5259L18.48 23.9716L18.48 17.5976L24 14.4107L24 13.3022L18.48 16.4891L18.48 10.1152Z" fill="#FF6969"/>
</g>
<defs>
<clipPath id="clip0_1004_3710">
<rect width="13.8564" height="13.8564" fill="white" transform="matrix(-0.866025 0.5 -0.866025 -0.5 24 6.92822)"/>
</clipPath>
<clipPath id="clip1_1004_3710">
<rect width="13.8564" height="13.8564" fill="white" transform="matrix(0.866025 0.5 -2.20305e-08 1 0 6.92822)"/>
</clipPath>
<clipPath id="clip2_1004_3710">
<rect width="13.8564" height="13.8564" fill="white" transform="matrix(0.866025 -0.5 2.20305e-08 1 12 13.8564)"/>
</clipPath>
</defs>
</svg>
