<svg width="80" height="80" viewBox="0 0 80 80" fill="none" xmlns="http://www.w3.org/2000/svg">
<path fill-rule="evenodd" clip-rule="evenodd" d="M8.09297 20.2965C7.19922 21.9797 7.19922 24.1832 7.19922 28.5902V51.4098C7.19922 55.8168 7.19922 58.0203 8.09297 59.7035C8.87913 61.1842 10.1336 62.3879 11.6765 63.1423C13.4306 64 15.7268 64 20.3192 64H59.6792C64.2716 64 66.5679 64 68.3219 63.1423C69.8649 62.3879 71.1193 61.1842 71.9055 59.7035C72.7992 58.0203 72.7992 55.8168 72.7992 51.4098V28.5902C72.7992 24.1832 72.7992 21.9797 71.9055 20.2965C71.1193 18.8158 69.8649 17.6121 68.3219 16.8577C66.5679 16 64.2716 16 59.6792 16H20.3192C15.7268 16 13.4306 16 11.6765 16.8577C10.1336 17.6121 8.87913 18.8158 8.09297 20.2965ZM47.3083 40.0734C47.2 39.8398 46.877 39.6609 46.2312 39.3031L37.8672 34.6692C37.2214 34.3113 36.8985 34.1324 36.6335 34.1592C36.4024 34.1825 36.1924 34.2988 36.0558 34.4792C35.8992 34.6861 35.8992 35.0439 35.8992 35.7595V45.0274C35.8992 45.743 35.8992 46.1008 36.0558 46.3077C36.1924 46.4881 36.4024 46.6044 36.6335 46.6277C36.8985 46.6544 37.2214 46.4755 37.8672 46.1177L46.2312 41.4838C46.877 41.126 47.2 40.9471 47.3083 40.7135C47.4028 40.5098 47.4028 40.2771 47.3083 40.0734Z" fill="#56A0F6"/>
</svg>
