<svg width="80" height="17" viewBox="0 0 80 17" fill="none" xmlns="http://www.w3.org/2000/svg">
<path d="M58.7962 0.751573H56.2101V10.7424H57.3739V6.81364H58.5532C59.8411 6.81364 60.8307 6.54106 61.5221 5.9959C62.2135 5.45075 62.5583 4.67684 62.5566 3.67417C62.5566 1.73086 61.3057 0.760068 58.8041 0.761791M60.6584 5.32769C60.198 5.66045 59.4507 5.82555 58.4213 5.82555H57.3712V1.75763H58.6642C59.5823 1.75763 60.2599 1.92015 60.6918 2.24265C61.1342 2.59088 61.3845 3.15738 61.3436 3.71802C61.3436 4.45064 61.1126 4.98377 60.6505 5.31739M67.2271 0.712891L63.2677 10.7424H64.4574L65.678 7.57206H69.6916L70.9381 10.7501H72.1432L68.2073 0.712891H67.2271ZM66.0892 6.51961L67.2685 3.42407C67.4399 2.95201 67.5841 2.47057 67.7004 1.98209C67.8304 2.47046 67.9858 2.95177 68.1659 3.42407L69.3297 6.51961H66.0892ZM78.7407 0.751573L76.0692 5.74827L73.4184 0.751573H72.1434L75.4794 6.92201V10.7425H76.6587V6.87311L80 0.75686L78.7407 0.751573ZM9.79894 6.90909C9.58851 7.68632 9.42444 8.4753 9.30759 9.27189C9.17439 8.46361 8.98865 7.66483 8.75155 6.88059L6.86889 0.751573H5.63524L3.84042 6.82656C3.59864 7.62738 3.4154 8.44463 3.29216 9.27189C3.17522 8.48055 3.01556 7.69608 2.81388 6.92189L1.2336 0.751573H0L2.66374 10.7424H3.8146L5.77231 4.09475C5.97582 3.44753 6.1356 2.78743 6.25059 2.11889C6.35746 2.77428 6.55699 3.42408 6.76008 4.05356L8.78001 10.7424H9.93087L12.6076 0.751573H11.3739L9.79894 6.90909ZM16.7583 0.718059L12.7989 10.7475H13.9781L15.2117 7.57206H19.2229L20.4694 10.7501H21.6745L17.7385 0.720444L16.7583 0.718059ZM15.6204 6.52477L16.7997 3.42924C16.9711 2.95717 17.1153 2.47571 17.2316 1.98722C17.3919 2.55732 17.5445 3.03713 17.6971 3.4292L18.8609 6.52473L15.6204 6.52477ZM25.6005 5.75089L22.9497 0.751613H21.6746L25.0106 6.92205V10.7426H26.1821V6.87315L29.5441 0.751732H28.2846L25.6005 5.75089Z" fill="#333333"/>
<path fill-rule="evenodd" clip-rule="evenodd" d="M44.4431 5.80523V5.76655L45.4337 5.76647V5.81815C45.4337 7.40024 45.1156 8.62727 44.4794 9.49924C43.8634 10.3508 42.8155 10.8545 41.7639 10.8045C40.7229 10.8436 39.6914 10.3297 39.0975 9.47602C38.4561 8.58862 38.1355 7.36503 38.1355 5.80523V5.76655H39.113V5.80523H44.4431ZM41.3785 8.35905V9.23872C41.3607 9.45616 41.5542 9.66553 41.7729 9.66553C41.9916 9.66553 42.1851 9.45613 42.1673 9.23868V8.35905C42.5585 8.17961 42.7871 7.72179 42.695 7.30224C42.6029 6.88269 42.2035 6.56202 41.7729 6.56202C41.3423 6.56202 40.9428 6.88269 40.8508 7.30224C40.7587 7.72179 40.9873 8.17961 41.3785 8.35905Z" fill="#B2B2B2"/>
<path d="M31.3934 10.7348V0.746641L36.9743 0.749226V1.78109H32.5571V5.43638H36.7079V6.46823H32.5572V10.7348H31.3934Z" fill="#B2B2B2"/>
<path fill-rule="evenodd" clip-rule="evenodd" d="M47.518 10.7375V0.749226L50.2618 0.749306C51.4904 0.749306 52.3981 0.984063 52.9851 1.45354C53.572 1.92301 53.8669 2.62724 53.8669 3.5714C53.8652 4.89214 53.1937 5.78467 51.8523 6.24902L54.5705 10.7374H53.1947L50.7714 6.58428H48.6818V10.7375H47.518ZM50.1947 1.76816H48.6818L48.6817 5.58598H50.2748C51.0991 5.58598 51.7025 5.42346 52.0851 5.09841C52.4846 4.72689 52.7012 4.17658 52.6619 3.63322C52.6619 2.97113 52.4662 2.49477 52.0748 2.20412C51.6835 1.91348 51.0568 1.76816 50.1947 1.76816Z" fill="#B2B2B2"/>
<path d="M38.1303 5.4906C38.1303 4.2427 38.342 3.05383 39.0846 2.03902L39.0924 2.02888C39.7069 1.17677 40.754 0.671934 41.8053 0.720921C42.8484 0.68064 43.8825 1.19585 44.4768 2.05198C45.2059 3.06219 45.4362 4.24088 45.4362 5.48027H44.4587C44.4587 4.50699 44.3286 3.56505 43.7862 2.74588C43.3626 2.08929 42.5844 1.69153 41.8027 1.73211C41.0119 1.6964 40.2273 2.10036 39.7984 2.76396C39.2493 3.57772 39.1131 4.51796 39.1131 5.4906H38.1303Z" fill="#B2B2B2"/>
<path d="M38.301 16.0487V14.6118H38.0553V14.3332H38.301V13.7761H38.6087V14.3332H38.8518V14.6118H38.6087V16.0487H38.301Z" fill="#B2B2B2"/>
<path fill-rule="evenodd" clip-rule="evenodd" d="M10.1171 15.8269V16.0488L10.4248 16.0383V14.3228H10.1119V14.5292C9.96368 14.3677 9.74674 14.2773 9.52742 14.279C9.05835 14.2696 8.64141 14.7039 8.64551 15.1718C8.63382 15.6493 9.06939 16.0898 9.54811 16.0772C9.7623 16.0797 9.97145 15.9837 10.1171 15.8269ZM9.55604 15.7934C9.23646 15.8003 8.95199 15.4978 8.96122 15.1794C8.95848 14.8701 9.23818 14.5887 9.5483 14.5887C9.86344 14.585 10.1392 14.8863 10.1328 15.2001C10.1343 15.5055 9.86286 15.7925 9.55604 15.7934Z" fill="#B2B2B2"/>
<path fill-rule="evenodd" clip-rule="evenodd" d="M3.12409 16.6137V15.84C3.27966 15.9974 3.49734 16.0891 3.71887 16.0874C4.18883 16.0971 4.60409 15.6606 4.60073 15.1923C4.61349 14.7146 4.17461 14.2737 3.69559 14.2895C3.48203 14.2887 3.27487 14.3835 3.12664 14.5371V14.3437H2.81631V16.6137H3.12409ZM3.11887 15.1743C3.11095 15.4877 3.38331 15.7924 3.69814 15.7882C4.00923 15.7868 4.28914 15.5052 4.28778 15.1949C4.29349 14.878 4.01333 14.5793 3.69555 14.5835C3.3891 14.5842 3.11561 14.8692 3.11887 15.1743Z" fill="#B2B2B2"/>
<path d="M14.4566 14.3332H14.7876L15.2531 15.6102L15.7548 14.3332H16.0885L15.1626 16.6033H14.8368L15.0747 15.9996L14.4566 14.3332Z" fill="#B2B2B2"/>
<path d="M21.1676 15.1819C21.1785 15.0252 21.1472 14.8685 21.0771 14.7279C21.0182 14.6333 20.9066 14.5761 20.7952 14.5835C20.6809 14.5762 20.5663 14.6328 20.5029 14.7279C20.4292 14.8628 20.396 15.016 20.4073 15.1692V16.0488H20.1123V14.3334H20.3891V14.5371C20.4918 14.3925 20.6643 14.3 20.8417 14.3075C21.054 14.2998 21.2685 14.4122 21.3589 14.6042C21.453 14.4089 21.6748 14.3 21.8917 14.3075C22.0649 14.2995 22.2385 14.3697 22.3572 14.4959C22.4811 14.6383 22.5442 14.8235 22.533 15.0118V16.0617H22.2227V15.0529C22.2302 14.9315 22.1955 14.8113 22.1244 14.7124C22.064 14.6333 21.9655 14.5862 21.8658 14.5886C21.7547 14.5789 21.6418 14.6302 21.5762 14.7202C21.5061 14.8543 21.4756 15.0054 21.4882 15.1561V16.0538H21.1882L21.1676 15.1819Z" fill="#B2B2B2"/>
<path fill-rule="evenodd" clip-rule="evenodd" d="M28.4038 15.3111L26.9581 15.3109C26.9965 15.5613 27.2143 15.7666 27.4669 15.7907C27.6809 15.8111 27.8989 15.7 28.0029 15.5121H28.3494C28.2204 15.8523 27.8861 16.1084 27.5219 16.1003C27.0491 16.1041 26.6305 15.6684 26.6297 15.1973C26.6262 14.7263 27.0421 14.2849 27.5141 14.2894C28.0827 14.2829 28.4038 14.7837 28.4038 15.3111ZM26.9683 15.0271L28.065 15.0323C28.0058 14.7829 27.7757 14.5859 27.5191 14.5859C27.2626 14.5859 27.0276 14.7781 26.9683 15.0271Z" fill="#B2B2B2"/>
<path d="M32.826 16.0487H32.5183V14.3333H32.8157V14.537C32.9288 14.3967 33.106 14.3139 33.2864 14.3152C33.4774 14.303 33.6702 14.3771 33.8036 14.514C33.9338 14.6724 33.9986 14.8745 33.9846 15.0789V16.0592H33.6821V15.1488C33.6923 15.0062 33.6559 14.8641 33.5785 14.7438C33.5031 14.6529 33.3834 14.6026 33.2656 14.6122C33.1363 14.6019 33.0054 14.6621 32.9294 14.767C32.8481 14.9262 32.8123 15.1047 32.8258 15.2829L32.826 16.0487Z" fill="#B2B2B2"/>
<path fill-rule="evenodd" clip-rule="evenodd" d="M48.4864 15.7931C48.2101 15.8006 47.9485 15.5834 47.906 15.311H49.3595C49.3595 14.7327 48.9313 14.2007 48.3296 14.3015C48.0249 14.3525 47.7609 14.5702 47.6475 14.8568C47.5613 15.0757 47.5613 15.319 47.6475 15.5379C47.78 15.8662 48.1149 16.1038 48.4698 16.1003C48.8343 16.1085 49.1675 15.8515 49.2999 15.5122H48.9508C48.86 15.6797 48.6771 15.7879 48.4864 15.7931ZM48.4723 14.5887C48.7279 14.5817 48.9552 14.7843 49.0154 15.0324L47.9163 15.0324C47.978 14.7818 48.2137 14.5852 48.4723 14.5887Z" fill="#B2B2B2"/>
<path d="M53.461 16.0487H53.7713L53.7762 15.2829C53.7613 15.1046 53.7972 14.9258 53.8798 14.767C53.9176 14.7144 53.9685 14.6725 54.0274 14.6453C54.0863 14.6182 54.1513 14.6068 54.216 14.6122C54.2749 14.6076 54.334 14.6172 54.3885 14.6401C54.4429 14.663 54.4911 14.6985 54.5289 14.7438C54.6054 14.8644 54.6407 15.0065 54.6298 15.1488V16.0592H54.935V15.0789C54.9479 14.8746 54.8832 14.673 54.7539 14.514C54.6201 14.3776 54.4276 14.3037 54.2367 14.3152C54.0535 14.3092 53.8718 14.3935 53.7584 14.5371V14.3333H53.461V16.0487Z" fill="#B2B2B2"/>
<path fill-rule="evenodd" clip-rule="evenodd" d="M59.4945 16.1855H59.1661L59.1609 16.1806C59.2131 16.3409 59.3178 16.479 59.4583 16.5727C59.6085 16.6686 59.7843 16.7171 59.9626 16.7118C60.482 16.7381 60.867 16.2735 60.8367 15.7548V14.3231H60.5264V14.5295C60.3728 14.3681 60.152 14.2772 59.929 14.279C59.4506 14.2694 59.043 14.6838 59.0472 15.1717C59.0355 15.6492 59.471 16.0897 59.9498 16.0771C60.1648 16.0793 60.3755 15.9846 60.5213 15.8269C60.5213 16.1696 60.2887 16.447 59.942 16.4331C59.7624 16.4326 59.5853 16.3401 59.4945 16.1855ZM59.9626 15.7885C59.6434 15.7934 59.3609 15.4927 59.3678 15.1745C59.365 14.8643 59.6464 14.5824 59.9574 14.5838C60.2718 14.5821 60.5453 14.8819 60.5393 15.1951C60.5427 15.501 60.2698 15.7877 59.9626 15.7885Z" fill="#B2B2B2"/>
<path d="M65.0418 14.1319H65.3496V13.7761H65.0418V14.1319Z" fill="#B2B2B2"/>
<path d="M65.0444 14.3331H65.3496V16.0461H65.0444V14.3331Z" fill="#B2B2B2"/>
<path d="M69.8702 16.0487H69.5598V14.3333H69.8573V14.5371C69.9703 14.3967 70.1475 14.3139 70.3279 14.3152C70.5189 14.303 70.7118 14.3771 70.8451 14.514C70.9754 14.6725 71.0401 14.8745 71.0262 15.0789V16.0592H70.7158V15.1488C70.7269 15.0063 70.6914 14.8642 70.6148 14.7434C70.5765 14.6981 70.5279 14.6626 70.473 14.6397C70.4181 14.6168 70.3586 14.6073 70.2993 14.6119C70.235 14.6064 70.1704 14.6178 70.1119 14.6449C70.0533 14.6721 70.0029 14.714 69.9657 14.7666C69.8832 14.9255 69.8473 15.1043 69.8623 15.2825L69.8702 16.0487Z" fill="#B2B2B2"/>
<path fill-rule="evenodd" clip-rule="evenodd" d="M76.9305 15.3111L75.4692 15.311C75.5054 15.5614 75.7243 15.7665 75.9767 15.7907C76.1907 15.8112 76.4119 15.7022 76.5114 15.5121H76.8709C76.7419 15.8523 76.4075 16.1084 76.0433 16.1003C75.6877 16.1031 75.3513 15.8669 75.2184 15.5378C75.1322 15.3189 75.1322 15.0757 75.2184 14.8568C75.349 14.5267 75.6853 14.286 76.0408 14.2894C76.5916 14.2831 76.9305 14.773 76.9305 15.3111ZM75.4768 15.0272L76.5761 15.0324C76.515 14.7835 76.2867 14.586 76.0303 14.586C75.7732 14.586 75.5378 14.7781 75.4768 15.0272Z" fill="#B2B2B2"/>
</svg>
