<svg viewBox="0 0 120 128" fill="none" xmlns="http://www.w3.org/2000/svg">
<path fill-rule="evenodd" clip-rule="evenodd" d="M29.8282 15.943L1.05802 31.3095C0.406891 31.6573 0.000270453 32.3354 0.000270453 33.0736V64.0211L1.00944e-05 94.9679C3.88096e-06 95.7064 0.406999 96.3848 1.05861 96.7325L29.7765 112.053C43.6546 119.457 55.6257 125.764 58.9559 127.516C59.5341 127.821 60.217 127.823 60.7969 127.522C64.1394 125.788 76.1608 119.534 90.0985 112.09L118.942 96.6844C119.593 96.3366 120 95.6584 120 94.9202V64.0211V33.122C120 32.3838 119.593 31.7056 118.942 31.3578L90.0985 15.9557C76.1686 8.51733 64.1899 2.23261 60.8508 0.483772C60.2698 0.1795 59.5831 0.180051 59.0025 0.485061C55.6691 2.23633 43.7212 8.52261 29.8282 15.943ZM33.2137 54.1394L54.6627 65.5829C55.3141 65.9304 55.7211 66.6087 55.7212 67.347L55.7264 91.5791L55.7313 113.676C55.7317 115.186 54.1224 116.152 52.79 115.441L32.528 104.632C24.735 100.475 16.7106 96.5779 9.08451 92.1063C8.47657 91.7498 8.10615 91.0963 8.10615 90.3916V66.1367V42.2186C8.10615 41.5512 8.81723 41.1245 9.40612 41.4384C10.1211 41.8194 20.8344 47.535 33.2137 54.1394ZM111.743 66.3351L111.741 90.4651C111.74 91.2035 111.334 91.8818 110.682 92.2294L89.2374 103.673C76.8607 110.277 66.1456 115.993 65.4264 116.375C64.834 116.689 64.1205 116.258 64.1223 115.588L64.187 91.6164L64.2528 67.36C64.2548 66.6238 64.6611 65.9482 65.3105 65.6013L87.7984 53.5901C96.7229 48.8233 104.625 44.6515 108.675 42.519C109.992 41.8256 111.572 42.7594 111.593 44.2476C111.652 48.5967 111.745 56.8816 111.743 66.3351ZM31.3543 93.9532C29.5173 92.8926 27.8812 91.5834 26.446 90.0256C25.019 88.4631 23.8914 86.7988 23.0631 85.0327C22.243 83.2619 21.8206 81.5218 21.796 79.8125L27.1595 82.9091C27.1923 83.6383 27.3932 84.3793 27.7623 85.1321C28.1395 85.8802 28.6398 86.581 29.263 87.2344C29.8863 87.8878 30.5875 88.4394 31.3666 88.8893C32.1785 89.358 32.8961 89.6066 33.5194 89.635C34.1426 89.6634 34.6306 89.4858 34.9832 89.1023C35.3359 88.7188 35.5122 88.1435 35.5122 87.3765C35.5122 86.5999 35.3236 85.8045 34.9463 84.9901C34.5773 84.171 34.0442 83.3897 33.3471 82.6463C32.6582 81.9077 31.8381 81.2638 30.8868 80.7145L28.5372 79.358V74.841L30.8868 76.1975C31.6905 76.6615 32.3999 76.9101 33.015 76.9432C33.6383 76.9811 34.1221 76.8154 34.4666 76.4461C34.811 76.0673 34.9832 75.4944 34.9832 74.7273C34.9832 73.9982 34.8315 73.2713 34.5281 72.5469C34.2328 71.8177 33.8146 71.1407 33.2733 70.5157C32.7403 69.8954 32.117 69.3793 31.4035 68.9674C30.6818 68.5507 30.0216 68.3211 29.423 68.2785C28.8243 68.2264 28.3445 68.3708 27.9837 68.7117C27.6228 69.0526 27.4301 69.5853 27.4055 70.3097L22.3004 67.3623C22.325 65.7003 22.7391 64.4622 23.5428 63.6478C24.3465 62.8334 25.4291 62.4593 26.7904 62.5256C28.16 62.5872 29.7059 63.1151 31.4281 64.1094C33.1667 65.1132 34.688 66.3561 35.992 67.8381C37.2959 69.3201 38.3087 70.8897 39.0304 72.5469C39.7603 74.1994 40.1212 75.7903 40.113 77.3196C40.1212 78.9532 39.6824 80.0588 38.7967 80.6364C37.9192 81.2188 36.7751 81.2496 35.3646 80.7287V80.956C37.218 82.3007 38.6286 83.8585 39.5963 85.6293C40.5722 87.3954 41.0561 89.1804 41.0479 90.9844C41.0561 92.6463 40.6419 93.8798 39.8054 94.6847C38.9771 95.4944 37.8331 95.8471 36.3733 95.7429C34.9135 95.6388 33.2405 95.0422 31.3543 93.9532ZM79.1896 98.7357L88.1205 93.5794C90.6792 92.1022 92.8771 90.2508 94.7141 88.0255C96.5594 85.7953 97.974 83.3072 98.9582 80.561C99.9505 77.81 100.447 74.9194 100.447 71.8891C100.447 68.8683 99.9505 66.56 98.9582 64.9644C97.974 63.364 96.5676 62.5141 94.7387 62.4147C92.9099 62.3058 90.7284 62.9828 88.1943 64.4459L79.1896 69.6448V98.7357ZM87.8991 88.4374L84.5162 90.3905V71.8394L87.9114 69.8792C89.486 68.9701 90.8105 68.5274 91.8848 68.551C92.9591 68.5747 93.7669 69.1121 94.3082 70.1632C94.8577 71.2096 95.1324 72.8077 95.1324 74.9573C95.1324 77.1258 94.8577 79.0553 94.3082 80.7456C93.7669 82.4218 92.955 83.899 91.8725 85.1774C90.7982 86.4417 89.4737 87.5283 87.8991 88.4374Z" fill="#56A0F6"/>
</svg>
