<svg width="100" height="100" viewBox="0 0 100 100" fill="none" xmlns="http://www.w3.org/2000/svg">
<path d="M50 0L58.3165 10.8741L70.3368 4.32273L73.5114 17.6393L87.1572 16.5435L84.641 30L97.5528 34.5491L89.7809 45.8189L99.7261 55.2264L88.0423 62.3607L93.3013 75L79.7258 76.7652L79.3893 90.4509L66.2695 86.5418L60.3956 98.9074L50 90L39.6044 98.9074L33.7305 86.5418L20.6107 90.4509L20.2742 76.7652L6.69873 75L11.9577 62.3607L0.273907 55.2264L10.2191 45.8189L2.44717 34.5491L15.359 30L12.8428 16.5435L26.4886 17.6393L29.6632 4.32273L41.6835 10.8741L50 0Z" fill="#FFEA7C"/>
<path d="M50 0.823054L57.9193 11.1778L58.1796 11.5181L58.5557 11.3131L70.0021 5.07462L73.025 17.7553L73.1244 18.172L73.5514 18.1377L86.5456 17.0942L84.1495 29.9081L84.0708 30.3292L84.4749 30.4716L96.7701 34.8035L89.3693 45.535L89.126 45.8877L89.4373 46.1821L98.9075 55.1404L87.7817 61.9339L87.4161 62.1572L87.5806 62.5528L92.5885 74.5885L79.6613 76.2694L79.2365 76.3246L79.2259 76.7529L78.9055 89.785L66.4122 86.0626L66.0017 85.9403L65.8178 86.3273L60.2245 98.1023L50.3253 89.6203L50 89.3416L49.6747 89.6203L39.7755 98.1023L34.1822 86.3273L33.9983 85.9403L33.5878 86.0626L21.0945 89.785L20.7741 76.7529L20.7635 76.3246L20.3387 76.2694L7.41151 74.5885L12.4194 62.5528L12.584 62.1572L12.2183 61.9339L1.09245 55.1404L10.5627 46.1821L10.874 45.8877L10.6307 45.535L3.22994 34.8035L15.5251 30.4716L15.9292 30.3292L15.8505 29.9081L13.4544 17.0942L26.4486 18.1377L26.8756 18.172L26.975 17.7553L29.9979 5.07462L41.4443 11.3131L41.8204 11.5181L42.0807 11.1778L50 0.823054Z" stroke="#333333"/>
<path d="M41.9545 41.5455V59H39.9091L30.3977 45.2955H30.2273V59H28.1136V41.5455H30.1591L39.7045 55.2841H39.875V41.5455H41.9545ZM51.3999 59.2727C50.1385 59.2727 49.0504 58.9943 48.1357 58.4375C47.2266 57.875 46.5249 57.0909 46.0305 56.0852C45.5419 55.0739 45.2976 53.8977 45.2976 52.5568C45.2976 51.2159 45.5419 50.0341 46.0305 49.0114C46.5249 47.983 47.2124 47.1818 48.093 46.608C48.9794 46.0284 50.0135 45.7386 51.1953 45.7386C51.8771 45.7386 52.5504 45.8523 53.2152 46.0795C53.88 46.3068 54.4851 46.6761 55.0305 47.1875C55.576 47.6932 56.0107 48.3636 56.3345 49.1989C56.6584 50.0341 56.8203 51.0625 56.8203 52.2841V53.1364H46.7294V51.3977H54.7749C54.7749 50.6591 54.6271 50 54.3317 49.4205C54.0419 48.8409 53.6271 48.3835 53.0874 48.0483C52.5533 47.7131 51.9226 47.5455 51.1953 47.5455C50.3942 47.5455 49.701 47.7443 49.1158 48.142C48.5362 48.5341 48.0902 49.0455 47.7777 49.6761C47.4652 50.3068 47.3089 50.983 47.3089 51.7045V52.8636C47.3089 53.8523 47.4794 54.6903 47.8203 55.3778C48.1669 56.0597 48.647 56.5795 49.2607 56.9375C49.8743 57.2898 50.5874 57.4659 51.3999 57.4659C51.9283 57.4659 52.4055 57.392 52.8317 57.2443C53.2635 57.0909 53.6357 56.8636 53.9482 56.5625C54.2607 56.2557 54.5021 55.875 54.6726 55.4205L56.6158 55.9659C56.4112 56.625 56.0675 57.2045 55.5845 57.7045C55.1016 58.1989 54.505 58.5852 53.7947 58.8636C53.0845 59.1364 52.2862 59.2727 51.3999 59.2727ZM62.8459 59L58.8572 45.9091H60.9709L63.8004 55.9318H63.9368L66.7322 45.9091H68.88L71.6413 55.8977H71.7777L74.6072 45.9091H76.7209L72.7322 59H70.755L67.8913 48.9432H67.6868L64.8232 59H62.8459Z" fill="#333333"/>
</svg>
