<svg width="80" height="17" viewBox="0 0 80 17" fill="none" xmlns="http://www.w3.org/2000/svg">
<path d="M32.3876 3.96332V2.24415H24.749V13.6334H26.9302V8.90979H31.8727V7.19062H26.9302V3.96332H32.3876Z" fill="#333333"/>
<path d="M53.3121 8.68048V13.6328H55.3714V8.22448C55.3714 6.96867 54.6301 4.65628 51.4896 4.65628C49.0355 4.65628 48.0916 5.95784 48.0916 5.95784L47.9363 4.82009H46.1094V13.6328H48.1963V9.14384C48.1963 7.18118 49.3804 6.25592 50.9747 6.25592C52.8693 6.25592 53.3121 7.57811 53.3121 8.68048Z" fill="#333333"/>
<path d="M80 4.80421H77.8532L74.7934 10.9785L71.5323 4.80421H69.2704L73.6984 12.9706C73.6022 13.1683 73.0116 14.3519 72.5774 14.7326C72.1981 15.0557 71.6744 15.1845 71.048 15.1845L71.3521 16.7114C71.8105 16.7239 72.2672 16.6555 72.6937 16.5103C73.1202 16.3651 73.5076 16.1463 73.832 15.8674C74.7986 15.0262 75.5949 13.2554 75.5949 13.2554L80 4.80421Z" fill="#333333"/>
<path d="M39.1926 4.67346C37.6436 4.67346 36.1806 4.96403 35.0196 5.96233C33.9408 6.88998 33.5207 8.09966 33.5207 9.40892C33.5212 10.5757 34.0605 11.6947 35.0202 12.5196C35.9799 13.3445 37.2813 13.8079 38.6383 13.8079C40.187 13.8079 41.6497 13.5175 42.8107 12.5196C43.7703 11.6947 44.3097 10.5757 44.3101 9.40892C44.3101 8.09968 43.8901 6.89001 42.8112 5.96233C41.8515 5.13708 40.5498 4.67346 39.1926 4.67346ZM41.2803 11.3339C40.6253 11.8971 39.7627 12.1552 38.8682 12.1552C38.0035 12.1552 37.1741 11.8597 36.5626 11.3339C35.8721 10.7402 35.6075 9.96717 35.6075 9.12999C35.6075 8.38641 35.9511 7.67323 36.5626 7.14743C37.1741 6.62161 38.0035 6.32622 38.8682 6.32622C39.7585 6.32622 40.6187 6.58739 41.27 7.14743C41.8815 7.67323 42.225 8.38641 42.225 9.12999C42.2636 9.96129 41.9592 10.7501 41.2803 11.3339Z" fill="#333333"/>
<path d="M65.7749 1.67774V5.63404C64.7516 4.92994 63.5444 4.67337 62.2792 4.67337C60.9221 4.67376 59.6206 5.13751 58.661 5.96268C57.5824 6.89012 57.1616 8.0998 57.1616 9.40886C57.1621 10.5757 57.7014 11.6945 58.6611 12.5195C59.6208 13.3444 60.9222 13.8078 62.2792 13.8078C63.6709 13.8078 64.9964 13.4867 66.0599 12.6391L66.229 13.6145H67.8756V1.67774H65.7749ZM65.8779 9.35128C65.8779 10.0949 65.5344 10.808 64.9229 11.3339C64.2679 11.8971 63.4053 12.1551 62.5109 12.1551C61.6461 12.1551 60.8167 11.8597 60.2052 11.3339C59.5937 10.808 59.2502 10.0949 59.2502 9.35128C59.2502 8.51413 59.5147 7.7411 60.2052 7.14735C60.8167 6.62153 61.6461 6.32613 62.5109 6.32613C63.4053 6.32613 64.2679 6.58416 64.9229 7.14735C65.6134 7.7411 65.8779 8.51414 65.8779 9.35128Z" fill="#333333"/>
<path d="M11.0545 13.2128V11.3877C11.0544 11.2869 11.0242 11.1879 10.967 11.1006C10.9098 11.0133 10.8276 10.9409 10.7285 10.8905L8.93603 9.97795C8.83692 9.92747 8.72451 9.90094 8.61007 9.90094C8.49563 9.90094 8.38321 9.92747 8.28411 9.97795L6.49156 10.8905C6.39256 10.9409 6.31033 11.0133 6.25313 11.1006C6.19592 11.1879 6.16574 11.2869 6.16563 11.3877V13.2128C6.16546 13.3138 6.1955 13.4132 6.25272 13.5007C6.30994 13.5882 6.39232 13.6609 6.49156 13.7114L8.28411 14.624C8.38321 14.6745 8.49563 14.701 8.61007 14.701C8.72451 14.701 8.83692 14.6745 8.93603 14.624L10.7285 13.7114C10.8278 13.6609 10.9102 13.5882 10.9674 13.5007C11.0246 13.4132 11.0546 13.3138 11.0545 13.2128Z" fill="#B2B2B2"/>
<path d="M17.2196 13.2128V11.3877C17.2194 11.2869 17.1893 11.1879 17.1321 11.1006C17.0749 11.0133 16.9927 10.9409 16.8936 10.8905L15.1011 9.97795C15.002 9.92747 14.8896 9.90094 14.7751 9.90094C14.6607 9.90094 14.5483 9.92747 14.4492 9.97795L12.6567 10.8905C12.5576 10.9409 12.4754 11.0133 12.4182 11.1006C12.361 11.1879 12.3308 11.2869 12.3307 11.3877V13.2128C12.3306 13.3138 12.3606 13.4132 12.4178 13.5007C12.475 13.5882 12.5574 13.6609 12.6567 13.7114L14.4492 14.624C14.5483 14.6745 14.6607 14.701 14.7751 14.701C14.8896 14.701 15.002 14.6745 15.1011 14.624L16.8936 13.7114C16.9929 13.6609 17.0753 13.5882 17.1325 13.5007C17.1897 13.4132 17.2197 13.3138 17.2196 13.2128Z" fill="#B2B2B2"/>
<path d="M7.97833 8.61903V6.79394C7.97882 6.69265 7.94892 6.59304 7.89163 6.50522C7.83442 6.4174 7.7519 6.34448 7.65245 6.29383L5.85982 5.38417C5.76072 5.33372 5.64832 5.30715 5.53389 5.30715C5.41946 5.30715 5.30706 5.33372 5.20796 5.38417L3.41538 6.29383C3.31639 6.34424 3.23416 6.41671 3.17696 6.50398C3.11975 6.59125 3.08958 6.69026 3.08946 6.79106V8.61614C3.08929 8.71716 3.11933 8.81648 3.17655 8.90405C3.23377 8.99156 3.31615 9.06429 3.41538 9.11484L5.20796 10.0302C5.30706 10.0807 5.41946 10.1072 5.53389 10.1072C5.64832 10.1072 5.76072 10.0807 5.85982 10.0302L7.65245 9.11766C7.75169 9.06718 7.83407 8.99445 7.89129 8.90688C7.9485 8.81938 7.97854 8.72005 7.97833 8.61903Z" fill="#B2B2B2"/>
<path d="M14.1377 8.62098V6.79482C14.1377 6.69395 14.1075 6.59488 14.0503 6.50757C13.993 6.42024 13.9108 6.34772 13.8118 6.2973L12.0192 5.38421C11.9201 5.33374 11.8077 5.30715 11.6933 5.30715C11.5789 5.30715 11.4665 5.33374 11.3674 5.38421L9.5748 6.29441C9.47577 6.34485 9.3936 6.41737 9.33638 6.50468C9.27916 6.59201 9.24898 6.69107 9.24884 6.79193V8.61809C9.2487 8.71917 9.27874 8.81855 9.33596 8.90617C9.39318 8.99373 9.47556 9.06651 9.5748 9.11708L11.3674 10.0301C11.4665 10.0806 11.5789 10.1072 11.6933 10.1072C11.8077 10.1072 11.9201 10.0806 12.0192 10.0301L13.8118 9.11708C13.9106 9.06676 13.9926 8.99442 14.0498 8.90743C14.1071 8.82038 14.1373 8.72156 14.1377 8.62098Z" fill="#B2B2B2"/>
<path d="M4.88888 13.2128V11.3877C4.88876 11.2869 4.85859 11.1879 4.80138 11.1006C4.74417 11.0133 4.66195 10.9409 4.56296 10.8905L2.77037 9.97795C2.67127 9.92747 2.55887 9.90094 2.44444 9.90094C2.33002 9.90094 2.21761 9.92747 2.11851 9.97795L0.325926 10.8905C0.22693 10.9409 0.144705 11.0133 0.0874993 11.1006C0.0302931 11.1879 0.000117958 11.2869 7.08302e-07 11.3877V13.2128C-0.000168189 13.3138 0.0298713 13.4132 0.0870916 13.5007C0.144312 13.5882 0.226691 13.6609 0.325926 13.7114L2.11851 14.624C2.21761 14.6745 2.33002 14.701 2.44444 14.701C2.55887 14.701 2.67127 14.6745 2.77037 14.624L4.56296 13.7114C4.66219 13.6609 4.74457 13.5882 4.80179 13.5007C4.85901 13.4132 4.88905 13.3138 4.88888 13.2128Z" fill="#B2B2B2"/>
<path d="M11.0544 4.11372V2.23962C11.0543 2.1361 11.0241 2.03444 10.9669 1.94482C10.9097 1.85521 10.8275 1.78078 10.7285 1.72903L8.93593 0.791972C8.83682 0.740165 8.72441 0.712891 8.60997 0.712891C8.49553 0.712891 8.38312 0.740165 8.28401 0.791972L6.49146 1.72903C6.39246 1.78078 6.31023 1.85521 6.25303 1.94482C6.19582 2.03444 6.16565 2.1361 6.16553 2.23962V4.11372C6.16536 4.21749 6.1954 4.31946 6.25262 4.40936C6.30984 4.49925 6.39222 4.57391 6.49146 4.62579L8.28401 5.56284C8.38312 5.61465 8.49553 5.64193 8.60997 5.64193C8.72441 5.64193 8.83682 5.61465 8.93593 5.56284L10.7285 4.62579C10.8277 4.57391 10.9101 4.49925 10.9673 4.40936C11.0245 4.31946 11.0545 4.21749 11.0544 4.11372Z" fill="#333333"/>
</svg>
