<svg width="48" height="17" viewBox="0 0 48 17" fill="none" xmlns="http://www.w3.org/2000/svg">
<path d="M31.2641 0.712891C27.856 0.712891 24.8103 2.53026 24.8103 5.888C24.8103 9.73869 30.2119 10.0047 30.2119 11.9391C30.2119 12.7537 29.3046 13.4828 27.7549 13.4828C25.5556 13.4828 23.9118 12.464 23.9118 12.464L23.2085 15.8523C23.2085 15.8523 25.1021 16.7129 27.6161 16.7129C31.3424 16.7129 34.2745 14.8063 34.2745 11.3911C34.2745 7.32219 28.8503 7.06413 28.8503 5.26861C28.8503 4.63054 29.5951 3.93141 31.1404 3.93141C32.8839 3.93141 34.3063 4.67237 34.3063 4.67237L34.9947 1.39982C34.9947 1.39982 33.4469 0.712891 31.2641 0.712891ZM0.0825258 0.959876L0 1.45385C0 1.45385 1.43383 1.72381 2.72523 2.26234C4.38801 2.87986 4.50646 3.23935 4.7865 4.35592L7.83807 16.4582H11.9287L18.2307 0.959876H14.1494L10.1 11.4973L8.44764 2.56528C8.2961 1.54302 7.52851 0.959876 6.58893 0.959876H0.0825258ZM19.8718 0.959876L16.6702 16.4582H20.5621L23.7524 0.959876H19.8718ZM41.578 0.959876C40.6395 0.959876 40.1423 1.47677 39.7774 2.38004L34.0756 16.4582H38.1569L38.9465 14.1118H43.9187L44.3989 16.4582H48L44.8584 0.959876H41.578ZM42.1088 5.14704L43.3185 10.9628H40.0775L42.1088 5.14704Z" fill="#333333"/>
</svg>
