<svg width="78" height="17" viewBox="0 0 78 17" fill="none" xmlns="http://www.w3.org/2000/svg">
<path d="M9.93996 8.71289C9.93996 6.15755 11.1473 3.88959 13 2.42422C11.6365 1.35755 9.91654 0.712891 8.04044 0.712891C3.59608 0.712891 0 4.29088 0 8.71289C0 13.1349 3.59608 16.7129 8.04044 16.7129C9.91654 16.7129 11.6365 16.0682 13 15.0016C11.1447 13.5569 9.93996 11.2682 9.93996 8.71289Z" fill="#333333"/>
<path d="M26 8.71289C26 13.1349 22.4039 16.7129 17.9596 16.7129C16.0835 16.7129 14.3635 16.0682 13 15.0016C14.8761 13.5336 16.06 11.2682 16.06 8.71289C16.06 6.15755 14.8527 3.88959 13 2.42422C14.3609 1.35755 16.0809 0.712891 17.957 0.712891C22.4039 0.712891 26 4.31419 26 8.71289Z" fill="#B2B2B2"/>
<path d="M13 2.42422C11.1473 3.88959 9.93996 6.15755 9.93996 8.71289C9.93996 11.2682 11.1447 13.5569 13 15.0016C14.8761 13.5336 16.06 11.2682 16.06 8.71289C16.06 6.15755 14.8527 3.88959 13 2.42422Z" fill="#929292"/>
<path d="M36.9926 11.6255V8.97767C36.9926 7.96482 36.3535 7.30158 35.2564 7.30158C34.7079 7.30158 34.1114 7.47639 33.7013 8.05222C33.3818 7.56893 32.9238 7.30158 32.2368 7.30158C31.7788 7.30158 31.3208 7.43526 30.9586 7.91855V7.38898H30V11.6255H30.9586V9.28615C30.9586 8.53551 31.3687 8.18076 32.0078 8.18076C32.6468 8.18076 32.9664 8.57664 32.9664 9.28615V11.6255H33.925V9.28615C33.925 8.53551 34.383 8.18076 34.9741 8.18076C35.6132 8.18076 35.9328 8.57664 35.9328 9.28615V11.6255H36.9926ZM51.212 7.38898H49.6569V6.10878H48.6983V7.38898H47.8302V8.22703H48.6983V10.1705C48.6983 11.1422 49.1084 11.7129 50.2055 11.7129C50.6156 11.7129 51.0736 11.5792 51.3931 11.4044L51.1162 10.6075C50.8392 10.7823 50.5197 10.8286 50.2907 10.8286C49.8327 10.8286 49.6516 10.5612 49.6516 10.1242V8.22703H51.2067V7.38898H51.212ZM59.3496 7.29644C58.8011 7.29644 58.4336 7.56379 58.2046 7.9134V7.38384H57.246V11.6203H58.2046V9.23474C58.2046 8.53037 58.5241 8.12934 59.1206 8.12934C59.3017 8.12934 59.5307 8.17562 59.7171 8.21675L59.994 7.33243C59.8023 7.29644 59.5307 7.29644 59.3496 7.29644ZM47.0527 7.7386C46.5947 7.43012 45.9556 7.29644 45.2686 7.29644C44.1715 7.29644 43.4419 7.826 43.4419 8.66405C43.4419 9.36842 43.9905 9.76945 44.9491 9.89798L45.4071 9.94425C45.9077 10.0317 46.1846 10.1653 46.1846 10.3864C46.1846 10.6949 45.8172 10.916 45.1781 10.916C44.539 10.916 44.0331 10.6949 43.7135 10.4738L43.2555 11.1782C43.7561 11.5329 44.4431 11.7078 45.1301 11.7078C46.4083 11.7078 47.1432 11.1319 47.1432 10.3401C47.1432 9.5895 46.5468 9.19361 45.6361 9.05994L45.1781 9.01366C44.768 8.96739 44.4485 8.87998 44.4485 8.61777C44.4485 8.30929 44.768 8.13449 45.2739 8.13449C45.8225 8.13449 46.371 8.35556 46.648 8.48924L47.0527 7.7386ZM72.5572 7.29644C72.0087 7.29644 71.6412 7.56379 71.4122 7.9134V7.38384H70.4536V11.6203H71.4122V9.23474C71.4122 8.53037 71.7317 8.12934 72.3282 8.12934C72.5093 8.12934 72.7383 8.17562 72.9247 8.21675L73.2016 7.34271C73.0152 7.29644 72.7436 7.29644 72.5572 7.29644ZM60.3082 9.50723C60.3082 10.7874 61.2242 11.7129 62.6409 11.7129C63.2799 11.7129 63.7379 11.5792 64.1959 11.2296L63.7379 10.479C63.3705 10.7463 63.0083 10.8748 62.5929 10.8748C61.8154 10.8748 61.2668 10.3453 61.2668 9.50723C61.2668 8.71032 61.8154 8.18076 62.5929 8.13963C63.003 8.13963 63.3705 8.2733 63.7379 8.53551L64.1959 7.78487C63.7379 7.43011 63.2799 7.30158 62.6409 7.30158C61.2242 7.29644 60.3082 8.22703 60.3082 9.50723ZM69.1754 7.38898H68.2168V7.91855C67.8973 7.52266 67.4393 7.30158 66.8428 7.30158C65.6072 7.30158 64.6486 8.22703 64.6486 9.50723C64.6486 10.7874 65.6072 11.7129 66.8428 11.7129C67.4819 11.7129 67.9399 11.4918 68.2168 11.0959V11.6255H69.1754V7.38898ZM65.6552 9.50723C65.6552 8.75659 66.1558 8.13963 66.9812 8.13963C67.7588 8.13963 68.3073 8.71546 68.3073 9.50723C68.3073 10.2579 67.7588 10.8748 66.9812 10.8748C66.1611 10.8286 65.6552 10.2527 65.6552 9.50723ZM54.1837 7.29644C52.9612 7.29644 51.9896 8.18076 51.9896 9.50209C51.9896 10.8286 52.9056 11.7078 54.2317 11.7078C54.8707 11.7078 55.5098 11.5329 56.0158 11.1319L55.5578 10.4687C55.1903 10.736 54.7323 10.9108 54.2796 10.9108C53.6831 10.9108 53.092 10.6435 52.9535 9.89798H56.1968C56.1968 8.58935 55.4062 7.29644 54.1837 7.29644ZM54.1837 8.09335C54.7802 8.09335 55.1903 8.44811 55.2808 9.10621H52.9961C53.0867 8.53551 53.4967 8.09335 54.1837 8.09335ZM78 5.71289H77.0414V7.91855C76.7218 7.52266 76.2638 7.30158 75.6674 7.30158C74.4318 7.30158 73.4732 8.22703 73.4732 9.50723C73.4732 10.7874 74.4318 11.7129 75.6674 11.7129C76.3064 11.7129 76.7645 11.4918 77.0414 11.0959V11.6255H78V5.71289ZM74.4798 9.50723C74.4798 8.75659 74.9804 8.13963 75.8058 8.13963C76.5834 8.13963 77.1319 8.71546 77.1319 9.50723C77.1319 10.2579 76.5834 10.8748 75.8058 10.8748C74.9804 10.8286 74.4798 10.2527 74.4798 9.50723ZM42.3874 7.38898H41.4288V7.91855C41.1093 7.52266 40.6513 7.30158 40.0548 7.30158C38.8193 7.30158 37.8606 8.22703 37.8606 9.50723C37.8606 10.7874 38.8193 11.7129 40.0548 11.7129C40.6939 11.7129 41.1519 11.4918 41.4288 11.0959V11.6255H42.3874V7.38898ZM38.8246 9.50723C38.8246 8.75659 39.3252 8.13963 40.1507 8.13963C40.9282 8.13963 41.4768 8.71546 41.4768 9.50723C41.4768 10.2579 40.9282 10.8748 40.1507 10.8748C39.3252 10.8286 38.8246 10.2527 38.8246 9.50723Z" fill="black"/>
</svg>
